<mxGraphModel><root><mxCell id="0"/><mxCell id="1" parent="0"/><mxCell id="2" value="&lt;p style=&quot;margin:0px;margin-top:4px;text-align:center;&quot;&gt;&lt;i&gt;&amp;lt;&amp;lt;Entity&amp;gt;&amp;gt;&lt;/i&gt;&lt;/p&gt;&lt;p style=&quot;margin:0px;margin-top:4px;text-align:center;&quot;&gt;&lt;i&gt;&lt;b&gt;User&lt;/b&gt;&lt;/i&gt;&lt;br&gt;&lt;/p&gt;&lt;p style=&quot;margin:0px;margin-top:4px;text-align:center;&quot;&gt;&lt;br&gt;&lt;/p&gt;&lt;p style=&quot;margin:0px;margin-left:4px;&quot;&gt;+ email: String&lt;/p&gt;&lt;p style=&quot;margin:0px;margin-left:4px;&quot;&gt;+ contactNumber: String&lt;/p&gt;&lt;p style=&quot;margin:0px;margin-left:4px;&quot;&gt;+ userPhotoUrl: String&lt;/p&gt;&lt;p style=&quot;margin:0px;margin-left:4px;&quot;&gt;+ isBanned: Boolean&lt;/p&gt;&lt;p style=&quot;margin:0px;margin-left:4px;&quot;&gt;&lt;span style=&quot;background-color: initial;&quot;&gt;+ isBusiness: Boolean&lt;/span&gt;&lt;br&gt;&lt;/p&gt;&lt;p style=&quot;margin:0px;margin-left:4px;&quot;&gt;&lt;br&gt;&lt;/p&gt;&lt;p style=&quot;margin:0px;margin-left:4px;&quot;&gt;&lt;br&gt;&lt;/p&gt;" style="verticalAlign=top;align=left;overflow=fill;fontSize=12;fontFamily=Helvetica;html=1;whiteSpace=wrap;" vertex="1" parent="1"><mxGeometry x="319" y="40" width="190" height="130" as="geometry"/></mxCell><mxCell id="3" value="&lt;p style=&quot;margin:0px;margin-top:4px;text-align:center;&quot;&gt;&lt;i&gt;&amp;lt;&amp;lt;Entity&amp;gt;&amp;gt;&lt;/i&gt;&lt;/p&gt;&lt;p style=&quot;margin:0px;margin-top:4px;text-align:center;&quot;&gt;&lt;i&gt;&lt;b&gt;Account&lt;/b&gt;&lt;/i&gt;&lt;br&gt;&lt;/p&gt;&lt;p style=&quot;border-color: var(--border-color); margin: 0px 0px 0px 4px;&quot;&gt;+ userId: Long&lt;br style=&quot;border-color: var(--border-color);&quot;&gt;+ username: String&lt;/p&gt;&lt;p style=&quot;border-color: var(--border-color); margin: 0px 0px 0px 4px;&quot;&gt;+ password: String&lt;/p&gt;&lt;p style=&quot;margin:0px;margin-left:4px;&quot;&gt;&lt;br&gt;&lt;/p&gt;" style="verticalAlign=top;align=left;overflow=fill;fontSize=12;fontFamily=Helvetica;html=1;whiteSpace=wrap;" vertex="1" parent="1"><mxGeometry x="470" y="-200" width="190" height="130" as="geometry"/></mxCell><mxCell id="4" value="Extends" style="endArrow=block;endSize=16;endFill=0;html=1;rounded=0;exitX=0.5;exitY=1;exitDx=0;exitDy=0;entryX=0.5;entryY=0;entryDx=0;entryDy=0;edgeStyle=orthogonalEdgeStyle;" edge="1" source="3" target="2" parent="1"><mxGeometry width="160" relative="1" as="geometry"><mxPoint x="600" y="60" as="sourcePoint"/><mxPoint x="760" y="60" as="targetPoint"/><Array as="points"><mxPoint x="550" y="-70"/><mxPoint x="550" y="-15"/><mxPoint x="414" y="-15"/></Array></mxGeometry></mxCell><mxCell id="5" value="&lt;p style=&quot;margin:0px;margin-top:4px;text-align:center;&quot;&gt;&lt;i&gt;&amp;lt;&amp;lt;Entity&amp;gt;&amp;gt;&lt;/i&gt;&lt;/p&gt;&lt;p style=&quot;margin:0px;margin-top:4px;text-align:center;&quot;&gt;&lt;i&gt;&lt;b&gt;Admin&lt;/b&gt;&lt;/i&gt;&lt;br&gt;&lt;/p&gt;&lt;p style=&quot;border-color: var(--border-color); margin: 0px 0px 0px 4px;&quot;&gt;&lt;br&gt;&lt;/p&gt;&lt;hr size=&quot;1&quot;&gt;&lt;p style=&quot;margin:0px;margin-left:4px;&quot;&gt;+ banUser(Long userId)&lt;/p&gt;&lt;p style=&quot;margin:0px;margin-left:4px;&quot;&gt;+ unbanUser(Long userId)&lt;/p&gt;&lt;p style=&quot;margin:0px;margin-left:4px;&quot;&gt;+ deleteItem(Long itemId)&lt;/p&gt;&lt;p style=&quot;margin:0px;margin-left:4px;&quot;&gt;+ solveReportedItem(Long itemId)&lt;/p&gt;&lt;p style=&quot;margin:0px;margin-left:4px;&quot;&gt;+ viewReport(Long reportId)&lt;/p&gt;" style="verticalAlign=top;align=left;overflow=fill;fontSize=12;fontFamily=Helvetica;html=1;whiteSpace=wrap;" vertex="1" parent="1"><mxGeometry x="600" y="40" width="190" height="150" as="geometry"/></mxCell><mxCell id="6" value="Extends" style="endArrow=block;endSize=16;endFill=0;html=1;rounded=0;exitX=0.5;exitY=1;exitDx=0;exitDy=0;edgeStyle=orthogonalEdgeStyle;entryX=0.577;entryY=-0.017;entryDx=0;entryDy=0;entryPerimeter=0;" edge="1" source="3" target="5" parent="1"><mxGeometry width="160" relative="1" as="geometry"><mxPoint x="614" y="-60" as="sourcePoint"/><mxPoint x="910" y="-80" as="targetPoint"/><Array as="points"><mxPoint x="590" y="-70"/><mxPoint x="590" y="-15"/><mxPoint x="710" y="-15"/></Array></mxGeometry></mxCell><mxCell id="7" style="edgeStyle=orthogonalEdgeStyle;rounded=0;orthogonalLoop=1;jettySize=auto;html=1;entryX=0.992;entryY=0.66;entryDx=0;entryDy=0;exitX=-0.009;exitY=0.04;exitDx=0;exitDy=0;exitPerimeter=0;startArrow=ERmandOne;startFill=0;endArrow=ERzeroToMany;endFill=0;entryPerimeter=0;" edge="1" source="10" target="58" parent="1"><mxGeometry relative="1" as="geometry"><Array as="points"><mxPoint x="269" y="240"/><mxPoint x="269" y="180"/><mxPoint x="219" y="180"/></Array></mxGeometry></mxCell><mxCell id="8" value="wishlists" style="edgeLabel;html=1;align=center;verticalAlign=middle;resizable=0;points=[];" vertex="1" connectable="0" parent="7"><mxGeometry x="0.6905" y="1" relative="1" as="geometry"><mxPoint y="13" as="offset"/></mxGeometry></mxCell><mxCell id="9" value="item" style="edgeLabel;html=1;align=center;verticalAlign=middle;resizable=0;points=[];" vertex="1" connectable="0" parent="7"><mxGeometry x="-0.7938" y="-1" relative="1" as="geometry"><mxPoint y="-9" as="offset"/></mxGeometry></mxCell><mxCell id="10" value="&lt;p style=&quot;margin:0px;margin-top:4px;text-align:center;&quot;&gt;&lt;i&gt;&amp;lt;&amp;lt;Entity&amp;gt;&amp;gt;&lt;/i&gt;&lt;/p&gt;&lt;p style=&quot;margin:0px;margin-top:4px;text-align:center;&quot;&gt;&lt;i&gt;&lt;b&gt;Item&lt;/b&gt;&lt;/i&gt;&lt;br&gt;&lt;/p&gt;&lt;p style=&quot;margin:0px;margin-top:4px;text-align:center;&quot;&gt;&lt;br&gt;&lt;/p&gt;&lt;p style=&quot;margin:0px;margin-left:4px;&quot;&gt;+ itemId: Long&lt;br&gt;&lt;/p&gt;&lt;p style=&quot;margin:0px;margin-left:4px;&quot;&gt;+ itemDescription: String&lt;/p&gt;&lt;p style=&quot;margin:0px;margin-left:4px;&quot;&gt;+ rentalRateHourly: Long&lt;/p&gt;&lt;p style=&quot;margin:0px;margin-left:4px;&quot;&gt;+ rentalRateDaily: Long&lt;/p&gt;&lt;p style=&quot;border-color: var(--border-color); margin: 0px 0px 0px 4px;&quot;&gt;+ depositFee: Long&lt;/p&gt;&lt;p style=&quot;margin:0px;margin-left:4px;&quot;&gt;+ images: [] String&lt;/p&gt;&lt;p style=&quot;margin:0px;margin-left:4px;&quot;&gt;+ category: catergoryEnum&lt;/p&gt;&lt;p style=&quot;margin:0px;margin-left:4px;&quot;&gt;+ collectionLocations: [] String&lt;/p&gt;&lt;p style=&quot;margin:0px;margin-left:4px;&quot;&gt;+ usersLikedCount: Integer&lt;/p&gt;&lt;p style=&quot;margin:0px;margin-left:4px;&quot;&gt;+ impressions: Integer&lt;br&gt;&lt;/p&gt;&lt;p style=&quot;margin:0px;margin-left:4px;&quot;&gt;+ totalRentCollected: Long&lt;/p&gt;&lt;p style=&quot;margin:0px;margin-left:4px;&quot;&gt;&lt;br&gt;&lt;/p&gt;" style="verticalAlign=top;align=left;overflow=fill;fontSize=12;fontFamily=Helvetica;html=1;whiteSpace=wrap;" vertex="1" parent="1"><mxGeometry x="319" y="230" width="190" height="245" as="geometry"/></mxCell><mxCell id="11" value="" style="fontSize=12;html=1;endArrow=ERzeroToMany;startArrow=ERmandOne;rounded=0;exitX=0.5;exitY=1;exitDx=0;exitDy=0;" edge="1" source="2" target="10" parent="1"><mxGeometry width="100" height="100" relative="1" as="geometry"><mxPoint x="580" y="540" as="sourcePoint"/><mxPoint x="480" y="460" as="targetPoint"/></mxGeometry></mxCell><mxCell id="12" value="owner" style="edgeLabel;html=1;align=center;verticalAlign=middle;resizable=0;points=[];" vertex="1" connectable="0" parent="11"><mxGeometry x="-0.5899" y="1" relative="1" as="geometry"><mxPoint x="-25" y="-2" as="offset"/></mxGeometry></mxCell><mxCell id="13" value="items" style="edgeLabel;html=1;align=center;verticalAlign=middle;resizable=0;points=[];" vertex="1" connectable="0" parent="11"><mxGeometry x="0.0323" y="-1" relative="1" as="geometry"><mxPoint x="-23" y="19" as="offset"/></mxGeometry></mxCell><mxCell id="14" value="" style="fontSize=12;html=1;endArrow=ERzeroToMany;startArrow=ERmandOne;rounded=0;exitX=0.5;exitY=1;exitDx=0;exitDy=0;" edge="1" source="18" target="17" parent="1"><mxGeometry width="100" height="100" relative="1" as="geometry"><mxPoint x="230" y="1050" as="sourcePoint"/><mxPoint x="230" y="1130" as="targetPoint"/></mxGeometry></mxCell><mxCell id="15" value="rental" style="edgeLabel;html=1;align=center;verticalAlign=middle;resizable=0;points=[];" vertex="1" connectable="0" parent="14"><mxGeometry x="-0.5664" relative="1" as="geometry"><mxPoint x="-24" y="-7" as="offset"/></mxGeometry></mxCell><mxCell id="16" value="reviews" style="edgeLabel;html=1;align=center;verticalAlign=middle;resizable=0;points=[];" vertex="1" connectable="0" parent="14"><mxGeometry x="0.3724" relative="1" as="geometry"><mxPoint x="-34" y="13" as="offset"/></mxGeometry></mxCell><mxCell id="17" value="&lt;p style=&quot;margin:0px;margin-top:4px;text-align:center;&quot;&gt;&lt;i&gt;&amp;lt;&amp;lt;Entity&amp;gt;&amp;gt;&lt;/i&gt;&lt;/p&gt;&lt;p style=&quot;margin:0px;margin-top:4px;text-align:center;&quot;&gt;&lt;b&gt;&lt;i&gt;Review&lt;/i&gt;&lt;/b&gt;&lt;/p&gt;&lt;p style=&quot;margin:0px;margin-top:4px;text-align:center;&quot;&gt;&lt;b&gt;&lt;i&gt;&lt;br&gt;&lt;/i&gt;&lt;/b&gt;&lt;/p&gt;&lt;p style=&quot;margin:0px;margin-left:4px;&quot;&gt;+ reviewId: Long&lt;br&gt;&lt;/p&gt;&lt;p style=&quot;margin:0px;margin-left:4px;&quot;&gt;+ rating: int&lt;/p&gt;&lt;p style=&quot;margin:0px;margin-left:4px;&quot;&gt;+ reviewDescription: String&lt;/p&gt;&lt;p style=&quot;margin:0px;margin-left:4px;&quot;&gt;+ photos: [] String&lt;/p&gt;&lt;p style=&quot;margin:0px;margin-left:4px;&quot;&gt;+ reviewDate: Date&lt;/p&gt;&lt;p style=&quot;margin:0px;margin-left:4px;&quot;&gt;&lt;br&gt;&lt;/p&gt;&lt;p style=&quot;margin:0px;margin-left:4px;&quot;&gt;&lt;br&gt;&lt;/p&gt;" style="verticalAlign=top;align=left;overflow=fill;fontSize=12;fontFamily=Helvetica;html=1;whiteSpace=wrap;" vertex="1" parent="1"><mxGeometry x="319" y="850" width="190" height="160" as="geometry"/></mxCell><mxCell id="18" value="&lt;p style=&quot;margin:0px;margin-top:4px;text-align:center;&quot;&gt;&lt;i&gt;&amp;lt;&amp;lt;Entity&amp;gt;&amp;gt;&lt;/i&gt;&lt;/p&gt;&lt;p style=&quot;margin:0px;margin-top:4px;text-align:center;&quot;&gt;&lt;b&gt;&lt;i&gt;Rental&lt;/i&gt;&lt;/b&gt;&lt;/p&gt;&lt;p style=&quot;margin:0px;margin-top:4px;text-align:center;&quot;&gt;&lt;b&gt;&lt;i&gt;&lt;br&gt;&lt;/i&gt;&lt;/b&gt;&lt;/p&gt;&lt;p style=&quot;margin:0px;margin-left:4px;&quot;&gt;+ rentalId: Long&lt;/p&gt;&lt;p style=&quot;margin:0px;margin-left:4px;&quot;&gt;&lt;span style=&quot;background-color: initial;&quot;&gt;+ startDate: Datetime&lt;/span&gt;&lt;br&gt;&lt;/p&gt;&lt;p style=&quot;margin:0px;margin-left:4px;&quot;&gt;+ endDate: Datetime&lt;br&gt;&lt;/p&gt;&lt;p style=&quot;margin:0px;margin-left:4px;&quot;&gt;+ collectionLocation: String&lt;/p&gt;&lt;p style=&quot;margin:0px;margin-left:4px;&quot;&gt;+ status: rentalStatusEnum&lt;/p&gt;&lt;p style=&quot;border-color: var(--border-color); margin: 0px 0px 0px 4px;&quot;&gt;+ additionalRequests: String&lt;/p&gt;&lt;p style=&quot;border-color: var(--border-color); margin: 0px 0px 0px 4px;&quot;&gt;+ originalPrice: Long&lt;/p&gt;&lt;p style=&quot;border-color: var(--border-color); margin: 0px 0px 0px 4px;&quot;&gt;&lt;span style=&quot;background-color: initial;&quot;&gt;+ rentalFee: Long&lt;/span&gt;&lt;br&gt;&lt;/p&gt;&lt;p style=&quot;border-color: var(--border-color); margin: 0px 0px 0px 4px;&quot;&gt;&lt;br&gt;&lt;/p&gt;&lt;div&gt;&lt;br&gt;&lt;/div&gt;&lt;hr size=&quot;1&quot;&gt;&lt;p style=&quot;margin:0px;margin-left:4px;&quot;&gt;&lt;br&gt;&lt;/p&gt;" style="verticalAlign=top;align=left;overflow=fill;fontSize=12;fontFamily=Helvetica;html=1;whiteSpace=wrap;" vertex="1" parent="1"><mxGeometry x="319" y="580" width="190" height="190" as="geometry"/></mxCell><mxCell id="19" value="&lt;p style=&quot;margin:0px;margin-top:4px;text-align:center;&quot;&gt;&lt;i&gt;&amp;lt;&amp;lt;Enumeration&amp;gt;&amp;gt;&lt;/i&gt;&lt;/p&gt;&lt;p style=&quot;margin:0px;margin-top:4px;text-align:center;&quot;&gt;catergoryEnum&lt;br&gt;&lt;/p&gt;&lt;p style=&quot;margin:0px;margin-left:4px;&quot;&gt;AUDIO&lt;/p&gt;&lt;p style=&quot;margin:0px;margin-left:4px;&quot;&gt;CAR_ACCESSORIES&lt;/p&gt;&lt;p style=&quot;margin:0px;margin-left:4px;&quot;&gt;COMPUTER_TECH&lt;/p&gt;&lt;p style=&quot;margin:0px;margin-left:4px;&quot;&gt;HEALTH_PERSONALCARE&lt;/p&gt;&lt;p style=&quot;margin:0px;margin-left:4px;&quot;&gt;HOBBIES_CRAFT&lt;/p&gt;&lt;p style=&quot;margin:0px;margin-left:4px;&quot;&gt;HOME_LIVING&lt;/p&gt;&lt;p style=&quot;margin:0px;margin-left:4px;&quot;&gt;LUXURY&lt;/p&gt;&lt;p style=&quot;margin:0px;margin-left:4px;&quot;&gt;MENS_FASHION&lt;/p&gt;&lt;p style=&quot;margin:0px;margin-left:4px;&quot;&gt;WOMENS_FASHION&lt;/p&gt;&lt;p style=&quot;margin:0px;margin-left:4px;&quot;&gt;MOBILEPHONE_GADGETS&lt;/p&gt;&lt;p style=&quot;margin:0px;margin-left:4px;&quot;&gt;PHOTOGRAPHY_VIDEOGRAPHY&lt;/p&gt;&lt;p style=&quot;margin:0px;margin-left:4px;&quot;&gt;SPORTS_EQUIPMENT&lt;/p&gt;&lt;p style=&quot;margin:0px;margin-left:4px;&quot;&gt;VEHICLES&lt;/p&gt;&lt;p style=&quot;margin:0px;margin-left:4px;&quot;&gt;&lt;br&gt;&lt;/p&gt;&lt;p style=&quot;margin:0px;margin-left:4px;&quot;&gt;&lt;br&gt;&lt;/p&gt;" style="verticalAlign=top;align=left;overflow=fill;fontSize=12;fontFamily=Helvetica;html=1;whiteSpace=wrap;" vertex="1" parent="1"><mxGeometry x="-200" y="370" width="190" height="250" as="geometry"/></mxCell><mxCell id="20" value="&lt;p style=&quot;margin:0px;margin-top:4px;text-align:center;&quot;&gt;&lt;i&gt;&amp;lt;&amp;lt;Enumeration&amp;gt;&amp;gt;&lt;/i&gt;&lt;/p&gt;&lt;p style=&quot;margin:0px;margin-top:4px;text-align:center;&quot;&gt;rentalStatusEnum&lt;/p&gt;&lt;p style=&quot;margin:0px;margin-left:4px;&quot;&gt;&lt;br&gt;&lt;/p&gt;&lt;p style=&quot;margin:0px;margin-left:4px;&quot;&gt;PENDING&lt;/p&gt;&lt;p style=&quot;margin:0px;margin-left:4px;&quot;&gt;UPCOMING&lt;/p&gt;&lt;p style=&quot;margin:0px;margin-left:4px;&quot;&gt;ONGOING&lt;/p&gt;&lt;p style=&quot;margin:0px;margin-left:4px;&quot;&gt;RETURNED&lt;/p&gt;&lt;p style=&quot;margin:0px;margin-left:4px;&quot;&gt;COMPLETED&lt;/p&gt;&lt;p style=&quot;margin:0px;margin-left:4px;&quot;&gt;CANCELLED&lt;br&gt;&lt;/p&gt;&lt;p style=&quot;margin:0px;margin-left:4px;&quot;&gt;REJECTED&lt;/p&gt;&lt;p style=&quot;margin:0px;margin-left:4px;&quot;&gt;REPORTED&lt;/p&gt;" style="verticalAlign=top;align=left;overflow=fill;fontSize=12;fontFamily=Helvetica;html=1;whiteSpace=wrap;" vertex="1" parent="1"><mxGeometry x="590" y="850" width="190" height="170" as="geometry"/></mxCell><mxCell id="21" value="" style="fontSize=12;html=1;endArrow=ERzeroToMany;startArrow=ERmandOne;rounded=0;exitX=0.5;exitY=1;exitDx=0;exitDy=0;entryX=0.5;entryY=0;entryDx=0;entryDy=0;" edge="1" source="10" target="18" parent="1"><mxGeometry width="100" height="100" relative="1" as="geometry"><mxPoint x="329" y="570" as="sourcePoint"/><mxPoint x="240" y="570" as="targetPoint"/></mxGeometry></mxCell><mxCell id="22" value="item" style="edgeLabel;html=1;align=center;verticalAlign=middle;resizable=0;points=[];" vertex="1" connectable="0" parent="21"><mxGeometry x="-0.5702" y="-1" relative="1" as="geometry"><mxPoint x="-23" y="-7" as="offset"/></mxGeometry></mxCell><mxCell id="23" value="rentals" style="edgeLabel;html=1;align=center;verticalAlign=middle;resizable=0;points=[];" vertex="1" connectable="0" parent="21"><mxGeometry x="0.1571" relative="1" as="geometry"><mxPoint x="-24" y="24" as="offset"/></mxGeometry></mxCell><mxCell id="24" value="&lt;p style=&quot;margin:0px;margin-top:4px;text-align:center;&quot;&gt;&lt;i&gt;&amp;lt;&amp;lt;Entity&amp;gt;&amp;gt;&lt;/i&gt;&lt;/p&gt;&lt;p style=&quot;margin:0px;margin-top:4px;text-align:center;&quot;&gt;&lt;i&gt;&lt;b&gt;Report&lt;/b&gt;&lt;/i&gt;&lt;br&gt;&lt;/p&gt;&lt;p style=&quot;margin:0px;margin-top:4px;text-align:center;&quot;&gt;&lt;br&gt;&lt;/p&gt;&lt;p style=&quot;margin:0px;margin-left:4px;&quot;&gt;+ reportId: Long&lt;br&gt;&lt;/p&gt;&lt;p style=&quot;margin:0px;margin-left:4px;&quot;&gt;+ reportDescription: String&lt;/p&gt;&lt;p style=&quot;margin:0px;margin-left:4px;&quot;&gt;&lt;br&gt;&lt;/p&gt;&lt;p style=&quot;margin:0px;margin-left:4px;&quot;&gt;&lt;br&gt;&lt;/p&gt;" style="verticalAlign=top;align=left;overflow=fill;fontSize=12;fontFamily=Helvetica;html=1;whiteSpace=wrap;" vertex="1" parent="1"><mxGeometry x="30" y="670" width="190" height="160" as="geometry"/></mxCell><mxCell id="25" value="" style="fontSize=12;html=1;endArrow=ERzeroToMany;startArrow=ERmandOne;rounded=0;exitX=0;exitY=0.5;exitDx=0;exitDy=0;entryX=1;entryY=0.5;entryDx=0;entryDy=0;edgeStyle=orthogonalEdgeStyle;" edge="1" source="18" target="24" parent="1"><mxGeometry width="100" height="100" relative="1" as="geometry"><mxPoint x="519" y="810" as="sourcePoint"/><mxPoint x="570" y="810" as="targetPoint"/></mxGeometry></mxCell><mxCell id="26" value="rental" style="edgeLabel;html=1;align=center;verticalAlign=middle;resizable=0;points=[];" vertex="1" connectable="0" parent="25"><mxGeometry x="-0.6323" y="1" relative="1" as="geometry"><mxPoint x="7" y="-14" as="offset"/></mxGeometry></mxCell><mxCell id="27" value="reports" style="edgeLabel;html=1;align=center;verticalAlign=middle;resizable=0;points=[];" vertex="1" connectable="0" parent="25"><mxGeometry x="0.5133" y="-1" relative="1" as="geometry"><mxPoint x="-27" y="-12" as="offset"/></mxGeometry></mxCell><mxCell id="28" value="" style="endArrow=none;html=1;rounded=0;entryX=0;entryY=0.5;entryDx=0;entryDy=0;exitX=1;exitY=0.5;exitDx=0;exitDy=0;edgeStyle=orthogonalEdgeStyle;" edge="1" source="19" target="10" parent="1"><mxGeometry relative="1" as="geometry"><mxPoint x="360" y="420" as="sourcePoint"/><mxPoint x="520" y="420" as="targetPoint"/><Array as="points"><mxPoint x="-10" y="440"/><mxPoint x="155" y="440"/><mxPoint x="155" y="370"/><mxPoint x="319" y="370"/></Array></mxGeometry></mxCell><mxCell id="29" value="" style="edgeStyle=orthogonalEdgeStyle;fontSize=12;html=1;endArrow=ERzeroToMany;startArrow=ERmandOne;rounded=0;exitX=0.824;exitY=1.005;exitDx=0;exitDy=0;exitPerimeter=0;entryX=1.004;entryY=0.428;entryDx=0;entryDy=0;entryPerimeter=0;" edge="1" source="2" target="18" parent="1"><mxGeometry width="100" height="100" relative="1" as="geometry"><mxPoint x="390" y="610" as="sourcePoint"/><mxPoint x="690" y="580" as="targetPoint"/><Array as="points"><mxPoint x="476" y="210"/><mxPoint x="540" y="210"/><mxPoint x="540" y="661"/><mxPoint x="510" y="661"/></Array></mxGeometry></mxCell><mxCell id="30" value="borrower" style="edgeLabel;html=1;align=center;verticalAlign=middle;resizable=0;points=[];" vertex="1" connectable="0" parent="29"><mxGeometry x="-0.8919" y="3" relative="1" as="geometry"><mxPoint x="9" y="-11" as="offset"/></mxGeometry></mxCell><mxCell id="31" value="borrowedRentals" style="edgeLabel;html=1;align=center;verticalAlign=middle;resizable=0;points=[];" vertex="1" connectable="0" parent="29"><mxGeometry x="0.878" y="-1" relative="1" as="geometry"><mxPoint x="1" y="14" as="offset"/></mxGeometry></mxCell><mxCell id="32" value="" style="edgeStyle=orthogonalEdgeStyle;fontSize=12;html=1;endArrow=ERzeroToMany;startArrow=ERmandOne;rounded=0;entryX=1.004;entryY=0.717;entryDx=0;entryDy=0;entryPerimeter=0;" edge="1" target="18" parent="1"><mxGeometry width="100" height="100" relative="1" as="geometry"><mxPoint x="510" y="150" as="sourcePoint"/><mxPoint x="790" y="620" as="targetPoint"/><Array as="points"><mxPoint x="560" y="150"/><mxPoint x="560" y="716"/></Array></mxGeometry></mxCell><mxCell id="33" value="lender" style="edgeLabel;html=1;align=center;verticalAlign=middle;resizable=0;points=[];" vertex="1" connectable="0" parent="32"><mxGeometry x="-0.9054" relative="1" as="geometry"><mxPoint x="-23" y="-8" as="offset"/></mxGeometry></mxCell><mxCell id="34" value="lentRentals" style="edgeLabel;html=1;align=center;verticalAlign=middle;resizable=0;points=[];" vertex="1" connectable="0" parent="32"><mxGeometry x="0.8529" y="2" relative="1" as="geometry"><mxPoint x="-19" y="12" as="offset"/></mxGeometry></mxCell><mxCell id="35" value="&lt;p style=&quot;margin:0px;margin-top:4px;text-align:center;&quot;&gt;&lt;i&gt;&amp;lt;&amp;lt;Entity&amp;gt;&amp;gt;&lt;/i&gt;&lt;/p&gt;&lt;p style=&quot;margin:0px;margin-top:4px;text-align:center;&quot;&gt;&lt;b&gt;&lt;i&gt;Chat&lt;/i&gt;&lt;/b&gt;&lt;/p&gt;&lt;p style=&quot;margin:0px;margin-top:4px;text-align:center;&quot;&gt;&lt;b&gt;&lt;i&gt;&lt;br&gt;&lt;/i&gt;&lt;/b&gt;&lt;/p&gt;&lt;p style=&quot;margin:0px;margin-left:4px;&quot;&gt;+ chatId: Long&lt;/p&gt;&lt;p style=&quot;margin:0px;margin-left:4px;&quot;&gt;&lt;br&gt;&lt;/p&gt;&lt;p style=&quot;margin:0px;margin-left:4px;&quot;&gt;&lt;br&gt;&lt;/p&gt;" style="verticalAlign=top;align=left;overflow=fill;fontSize=12;fontFamily=Helvetica;html=1;whiteSpace=wrap;" vertex="1" parent="1"><mxGeometry x="660" y="220" width="190" height="160" as="geometry"/></mxCell><mxCell id="36" value="&lt;p style=&quot;margin:0px;margin-top:4px;text-align:center;&quot;&gt;&lt;i&gt;&amp;lt;&amp;lt;Entity&amp;gt;&amp;gt;&lt;/i&gt;&lt;/p&gt;&lt;p style=&quot;margin:0px;margin-top:4px;text-align:center;&quot;&gt;&lt;b&gt;&lt;i&gt;Message&lt;/i&gt;&lt;/b&gt;&lt;/p&gt;&lt;p style=&quot;margin:0px;margin-top:4px;text-align:center;&quot;&gt;&lt;b&gt;&lt;i&gt;&lt;br&gt;&lt;/i&gt;&lt;/b&gt;&lt;/p&gt;&lt;p style=&quot;margin:0px;margin-left:4px;&quot;&gt;+ messageId: Long&lt;/p&gt;&lt;p style=&quot;margin:0px;margin-left:4px;&quot;&gt;+ message: String&lt;/p&gt;&lt;p style=&quot;margin:0px;margin-left:4px;&quot;&gt;+ sentTime: dateTime&lt;/p&gt;&lt;p style=&quot;margin:0px;margin-left:4px;&quot;&gt;&lt;br&gt;&lt;/p&gt;&lt;p style=&quot;margin:0px;margin-left:4px;&quot;&gt;&lt;br&gt;&lt;/p&gt;" style="verticalAlign=top;align=left;overflow=fill;fontSize=12;fontFamily=Helvetica;html=1;whiteSpace=wrap;" vertex="1" parent="1"><mxGeometry x="940" y="220" width="190" height="160" as="geometry"/></mxCell><mxCell id="37" value="" style="fontSize=12;html=1;endArrow=ERzeroToMany;startArrow=ERmandOne;rounded=0;exitX=1;exitY=0.5;exitDx=0;exitDy=0;entryX=0;entryY=0.5;entryDx=0;entryDy=0;" edge="1" source="35" target="36" parent="1"><mxGeometry width="100" height="100" relative="1" as="geometry"><mxPoint x="870" y="550" as="sourcePoint"/><mxPoint x="970" y="450" as="targetPoint"/></mxGeometry></mxCell><mxCell id="38" value="chat" style="edgeLabel;html=1;align=center;verticalAlign=middle;resizable=0;points=[];" vertex="1" connectable="0" parent="37"><mxGeometry x="-0.6905" y="1" relative="1" as="geometry"><mxPoint y="-11" as="offset"/></mxGeometry></mxCell><mxCell id="39" value="messages" style="edgeLabel;html=1;align=center;verticalAlign=middle;resizable=0;points=[];" vertex="1" connectable="0" parent="37"><mxGeometry x="-0.6905" y="1" relative="1" as="geometry"><mxPoint x="44" y="-11" as="offset"/></mxGeometry></mxCell><mxCell id="40" value="" style="fontSize=12;html=1;endArrow=ERzeroToMany;startArrow=ERmandOne;rounded=0;entryX=0;entryY=0.5;entryDx=0;entryDy=0;exitX=1;exitY=0;exitDx=0;exitDy=0;edgeStyle=orthogonalEdgeStyle;" edge="1" source="2" target="35" parent="1"><mxGeometry width="100" height="100" relative="1" as="geometry"><mxPoint x="510" y="300" as="sourcePoint"/><mxPoint x="990" y="310" as="targetPoint"/><Array as="points"><mxPoint x="509" y="50"/><mxPoint x="585" y="50"/><mxPoint x="585" y="300"/></Array></mxGeometry></mxCell><mxCell id="41" value="chats" style="edgeLabel;html=1;align=center;verticalAlign=middle;resizable=0;points=[];" vertex="1" connectable="0" parent="40"><mxGeometry x="0.7324" y="-1" relative="1" as="geometry"><mxPoint x="35" y="-21" as="offset"/></mxGeometry></mxCell><mxCell id="42" value="user" style="edgeLabel;html=1;align=center;verticalAlign=middle;resizable=0;points=[];" vertex="1" connectable="0" parent="40"><mxGeometry x="-0.8232" relative="1" as="geometry"><mxPoint y="-11" as="offset"/></mxGeometry></mxCell><mxCell id="43" value="" style="fontSize=12;html=1;endArrow=ERzeroToMany;startArrow=ERmandOne;rounded=0;entryX=0;entryY=0.5;entryDx=0;entryDy=0;exitX=0.989;exitY=0.22;exitDx=0;exitDy=0;exitPerimeter=0;edgeStyle=orthogonalEdgeStyle;" edge="1" source="2" parent="1"><mxGeometry width="100" height="100" relative="1" as="geometry"><mxPoint x="510" y="330" as="sourcePoint"/><mxPoint x="660" y="330" as="targetPoint"/><Array as="points"><mxPoint x="570" y="71"/><mxPoint x="570" y="330"/></Array></mxGeometry></mxCell><mxCell id="44" value="chats" style="edgeLabel;html=1;align=center;verticalAlign=middle;resizable=0;points=[];" vertex="1" connectable="0" parent="43"><mxGeometry x="0.7324" y="-1" relative="1" as="geometry"><mxPoint x="35" y="-11" as="offset"/></mxGeometry></mxCell><mxCell id="45" value="peer" style="edgeLabel;html=1;align=center;verticalAlign=middle;resizable=0;points=[];" vertex="1" connectable="0" parent="43"><mxGeometry x="-0.8232" relative="1" as="geometry"><mxPoint y="-11" as="offset"/></mxGeometry></mxCell><mxCell id="46" value="" style="endArrow=none;html=1;rounded=0;exitX=0;exitY=0.5;exitDx=0;exitDy=0;edgeStyle=orthogonalEdgeStyle;" edge="1" source="20" target="18" parent="1"><mxGeometry relative="1" as="geometry"><mxPoint x="290" y="385" as="sourcePoint"/><mxPoint x="329" y="595" as="targetPoint"/><Array as="points"><mxPoint x="590" y="930"/><mxPoint x="570" y="930"/><mxPoint x="570" y="760"/></Array></mxGeometry></mxCell><mxCell id="47" value="&lt;p style=&quot;margin:0px;margin-top:4px;text-align:center;&quot;&gt;&lt;i&gt;&amp;lt;&amp;lt;Entity&amp;gt;&amp;gt;&lt;/i&gt;&lt;/p&gt;&lt;p style=&quot;margin:0px;margin-top:4px;text-align:center;&quot;&gt;&lt;b&gt;&lt;i&gt;Spotlight&lt;/i&gt;&lt;/b&gt;&lt;/p&gt;&lt;p style=&quot;margin:0px;margin-top:4px;text-align:center;&quot;&gt;&lt;b&gt;&lt;i&gt;&lt;br&gt;&lt;/i&gt;&lt;/b&gt;&lt;/p&gt;&lt;p style=&quot;margin:0px;margin-left:4px;&quot;&gt;+ spotlightId: Long&lt;br&gt;&lt;/p&gt;&lt;p style=&quot;margin:0px;margin-left:4px;&quot;&gt;+ startDate: Datetime&lt;/p&gt;&lt;p style=&quot;margin:0px;margin-left:4px;&quot;&gt;+ endDate: Datetime&lt;/p&gt;&lt;p style=&quot;margin:0px;margin-left:4px;&quot;&gt;+ spotlightPrice: Long&lt;/p&gt;&lt;p style=&quot;margin:0px;margin-left:4px;&quot;&gt;&amp;nbsp;&lt;/p&gt;&lt;p style=&quot;margin:0px;margin-left:4px;&quot;&gt;&lt;br&gt;&lt;/p&gt;" style="verticalAlign=top;align=left;overflow=fill;fontSize=12;fontFamily=Helvetica;html=1;whiteSpace=wrap;" vertex="1" parent="1"><mxGeometry x="30" y="490" width="190" height="160" as="geometry"/></mxCell><mxCell id="48" value="" style="fontSize=12;html=1;endArrow=ERzeroToMany;startArrow=ERmandOne;rounded=0;exitX=-0.014;exitY=0.869;exitDx=0;exitDy=0;entryX=1;entryY=0.75;entryDx=0;entryDy=0;edgeStyle=orthogonalEdgeStyle;exitPerimeter=0;" edge="1" source="10" target="47" parent="1"><mxGeometry width="100" height="100" relative="1" as="geometry"><mxPoint x="319" y="600" as="sourcePoint"/><mxPoint x="230" y="600" as="targetPoint"/></mxGeometry></mxCell><mxCell id="49" value="spotlights" style="edgeLabel;html=1;align=center;verticalAlign=middle;resizable=0;points=[];" vertex="1" connectable="0" parent="48"><mxGeometry x="0.5797" relative="1" as="geometry"><mxPoint x="-30" y="-10" as="offset"/></mxGeometry></mxCell><mxCell id="50" value="item" style="edgeLabel;html=1;align=center;verticalAlign=middle;resizable=0;points=[];" vertex="1" connectable="0" parent="48"><mxGeometry x="-0.5496" y="-1" relative="1" as="geometry"><mxPoint x="31" y="-20" as="offset"/></mxGeometry></mxCell><mxCell id="51" value="&lt;p style=&quot;margin:0px;margin-top:4px;text-align:center;&quot;&gt;&lt;i&gt;&amp;lt;&amp;lt;Entity&amp;gt;&amp;gt;&lt;/i&gt;&lt;/p&gt;&lt;p style=&quot;margin:0px;margin-top:4px;text-align:center;&quot;&gt;&lt;b&gt;&lt;i&gt;Ad&lt;/i&gt;&lt;/b&gt;&lt;/p&gt;&lt;p style=&quot;margin:0px;margin-top:4px;text-align:center;&quot;&gt;&lt;b&gt;&lt;i&gt;&lt;br&gt;&lt;/i&gt;&lt;/b&gt;&lt;/p&gt;&lt;p style=&quot;margin:0px;margin-left:4px;&quot;&gt;&lt;span style=&quot;background-color: initial;&quot;&gt;+ adId: Long&lt;/span&gt;&lt;/p&gt;&lt;p style=&quot;margin:0px;margin-left:4px;&quot;&gt;&lt;span style=&quot;background-color: initial;&quot;&gt;+ image: String&lt;/span&gt;&lt;/p&gt;&lt;p style=&quot;margin:0px;margin-left:4px;&quot;&gt;&lt;span style=&quot;background-color: initial;&quot;&gt;+ description: String&lt;/span&gt;&lt;/p&gt;&lt;p style=&quot;margin:0px;margin-left:4px;&quot;&gt;&lt;span style=&quot;background-color: initial;&quot;&gt;+ bidPrice: Long&lt;/span&gt;&lt;/p&gt;&lt;p style=&quot;margin:0px;margin-left:4px;&quot;&gt;&lt;span style=&quot;background-color: initial;&quot;&gt;+ startDate: Datetime&lt;/span&gt;&lt;/p&gt;&lt;p style=&quot;margin:0px;margin-left:4px;&quot;&gt;&lt;span style=&quot;background-color: initial;&quot;&gt;+ endDate: Datetime&lt;/span&gt;&lt;/p&gt;&lt;p style=&quot;margin:0px;margin-left:4px;&quot;&gt;&amp;nbsp;&lt;/p&gt;&lt;p style=&quot;margin:0px;margin-left:4px;&quot;&gt;&lt;br&gt;&lt;/p&gt;" style="verticalAlign=top;align=left;overflow=fill;fontSize=12;fontFamily=Helvetica;html=1;whiteSpace=wrap;" vertex="1" parent="1"><mxGeometry x="30" y="-120" width="190" height="180" as="geometry"/></mxCell><mxCell id="52" value="" style="edgeStyle=orthogonalEdgeStyle;fontSize=12;html=1;endArrow=ERzeroToMany;startArrow=ERmandOne;rounded=0;entryX=1;entryY=0.5;entryDx=0;entryDy=0;exitX=0.25;exitY=0;exitDx=0;exitDy=0;" edge="1" source="2" target="51" parent="1"><mxGeometry width="100" height="100" relative="1" as="geometry"><mxPoint x="210" y="350" as="sourcePoint"/><mxPoint x="310" y="250" as="targetPoint"/></mxGeometry></mxCell><mxCell id="53" value="ads" style="edgeLabel;html=1;align=center;verticalAlign=middle;resizable=0;points=[];" vertex="1" connectable="0" parent="52"><mxGeometry x="0.5239" y="-3" relative="1" as="geometry"><mxPoint x="-21" y="-7" as="offset"/></mxGeometry></mxCell><mxCell id="54" value="advertiser" style="edgeLabel;html=1;align=center;verticalAlign=middle;resizable=0;points=[];" vertex="1" connectable="0" parent="52"><mxGeometry x="-0.3341" y="-3" relative="1" as="geometry"><mxPoint x="-25" y="53" as="offset"/></mxGeometry></mxCell><mxCell id="55" style="edgeStyle=orthogonalEdgeStyle;rounded=0;orthogonalLoop=1;jettySize=auto;html=1;entryX=0.004;entryY=0.907;entryDx=0;entryDy=0;exitX=1.005;exitY=0.421;exitDx=0;exitDy=0;exitPerimeter=0;endArrow=ERmandOne;endFill=0;startArrow=ERzeroToMany;startFill=0;entryPerimeter=0;" edge="1" source="58" target="2" parent="1"><mxGeometry relative="1" as="geometry"/></mxCell><mxCell id="56" value="user" style="edgeLabel;html=1;align=center;verticalAlign=middle;resizable=0;points=[];" vertex="1" connectable="0" parent="55"><mxGeometry x="0.5943" relative="1" as="geometry"><mxPoint y="-8" as="offset"/></mxGeometry></mxCell><mxCell id="57" value="wishlists" style="edgeLabel;html=1;align=center;verticalAlign=middle;resizable=0;points=[];" vertex="1" connectable="0" parent="55"><mxGeometry x="-0.5183" y="1" relative="1" as="geometry"><mxPoint x="5" y="-7" as="offset"/></mxGeometry></mxCell><mxCell id="58" value="&lt;p style=&quot;margin:0px;margin-top:4px;text-align:center;&quot;&gt;&lt;i&gt;&amp;lt;&amp;lt;Entity&amp;gt;&amp;gt;&lt;/i&gt;&lt;/p&gt;&lt;p style=&quot;margin:0px;margin-top:4px;text-align:center;&quot;&gt;&lt;b&gt;&lt;i&gt;Wishlist&lt;/i&gt;&lt;/b&gt;&lt;/p&gt;&lt;p style=&quot;margin:0px;margin-top:4px;text-align:center;&quot;&gt;&lt;b&gt;&lt;i&gt;&lt;br&gt;&lt;/i&gt;&lt;/b&gt;&lt;/p&gt;&lt;p style=&quot;margin:0px;margin-left:4px;&quot;&gt;&lt;span style=&quot;background-color: initial;&quot;&gt;+ wishlistId: Long&lt;/span&gt;&lt;/p&gt;&lt;p style=&quot;margin:0px;margin-left:4px;&quot;&gt;&lt;span style=&quot;background-color: initial;&quot;&gt;+ wishlistDate: Datetime&lt;/span&gt;&lt;/p&gt;&lt;p style=&quot;margin:0px;margin-left:4px;&quot;&gt;&lt;br&gt;&lt;/p&gt;&lt;p style=&quot;margin:0px;margin-left:4px;&quot;&gt;&amp;nbsp;&lt;/p&gt;&lt;p style=&quot;margin:0px;margin-left:4px;&quot;&gt;&lt;br&gt;&lt;/p&gt;" style="verticalAlign=top;align=left;overflow=fill;fontSize=12;fontFamily=Helvetica;html=1;whiteSpace=wrap;" vertex="1" parent="1"><mxGeometry x="30" y="120" width="190" height="90" as="geometry"/></mxCell><mxCell id="59" style="edgeStyle=orthogonalEdgeStyle;rounded=0;orthogonalLoop=1;jettySize=auto;html=1;entryX=0.005;entryY=0.184;entryDx=0;entryDy=0;entryPerimeter=0;endArrow=ERmandOne;endFill=0;startArrow=ERzeroToMany;startFill=0;" edge="1" source="65" target="10" parent="1"><mxGeometry relative="1" as="geometry"/></mxCell><mxCell id="60" value="item" style="edgeLabel;html=1;align=center;verticalAlign=middle;resizable=0;points=[];" vertex="1" connectable="0" parent="59"><mxGeometry x="0.6" y="2" relative="1" as="geometry"><mxPoint y="-13" as="offset"/></mxGeometry></mxCell><mxCell id="61" value="impressions" style="edgeLabel;html=1;align=center;verticalAlign=middle;resizable=0;points=[];" vertex="1" connectable="0" parent="59"><mxGeometry x="-0.5601" y="2" relative="1" as="geometry"><mxPoint x="8" y="-13" as="offset"/></mxGeometry></mxCell><mxCell id="62" style="edgeStyle=orthogonalEdgeStyle;rounded=0;orthogonalLoop=1;jettySize=auto;html=1;entryX=0;entryY=0.5;entryDx=0;entryDy=0;endArrow=ERmandOne;endFill=0;startArrow=ERzeroToMany;startFill=0;" edge="1" source="65" target="2" parent="1"><mxGeometry relative="1" as="geometry"><Array as="points"><mxPoint x="-10" y="275"/><mxPoint x="-10" y="105"/></Array></mxGeometry></mxCell><mxCell id="63" value="user" style="edgeLabel;html=1;align=center;verticalAlign=middle;resizable=0;points=[];" vertex="1" connectable="0" parent="62"><mxGeometry x="0.9137" y="2" relative="1" as="geometry"><mxPoint y="-13" as="offset"/></mxGeometry></mxCell><mxCell id="64" value="impressions" style="edgeLabel;html=1;align=center;verticalAlign=middle;resizable=0;points=[];" vertex="1" connectable="0" parent="62"><mxGeometry x="-0.8799" y="1" relative="1" as="geometry"><mxPoint x="-7" y="14" as="offset"/></mxGeometry></mxCell><mxCell id="65" value="&lt;p style=&quot;margin:0px;margin-top:4px;text-align:center;&quot;&gt;&lt;i&gt;&amp;lt;&amp;lt;Entity&amp;gt;&amp;gt;&lt;/i&gt;&lt;/p&gt;&lt;p style=&quot;margin:0px;margin-top:4px;text-align:center;&quot;&gt;&lt;b&gt;&lt;i&gt;Impression&lt;/i&gt;&lt;/b&gt;&lt;/p&gt;&lt;p style=&quot;margin:0px;margin-top:4px;text-align:center;&quot;&gt;&lt;b&gt;&lt;i&gt;&lt;br&gt;&lt;/i&gt;&lt;/b&gt;&lt;/p&gt;&lt;p style=&quot;margin:0px;margin-left:4px;&quot;&gt;&lt;span style=&quot;background-color: initial;&quot;&gt;+ impressionId: Long&lt;/span&gt;&lt;/p&gt;&lt;p style=&quot;margin:0px;margin-left:4px;&quot;&gt;&lt;span style=&quot;background-color: initial;&quot;&gt;+ impressionDate: Datetime&lt;/span&gt;&lt;/p&gt;&lt;p style=&quot;margin:0px;margin-left:4px;&quot;&gt;&lt;br&gt;&lt;/p&gt;&lt;p style=&quot;margin:0px;margin-left:4px;&quot;&gt;&amp;nbsp;&lt;/p&gt;&lt;p style=&quot;margin:0px;margin-left:4px;&quot;&gt;&lt;br&gt;&lt;/p&gt;" style="verticalAlign=top;align=left;overflow=fill;fontSize=12;fontFamily=Helvetica;html=1;whiteSpace=wrap;" vertex="1" parent="1"><mxGeometry x="30" y="230" width="190" height="90" as="geometry"/></mxCell></root></mxGraphModel>
